<svg xmlns="http://www.w3.org/2000/svg">

<symbol id="icon_logo" viewBox="0 0 25 35" fill="none" >
<path d="M12.593 35C8.79492 35 4.87025 33.5211 1.45198 30.6866C-0.320446 29.2077 -0.447048 26.6197 0.945576 24.8944C2.4648 23.169 5.12345 23.0458 6.89588 24.4014C10.0609 27.1127 13.6058 27.2359 15.2516 25.8803C16.1378 25.1408 16.5177 23.7852 16.6443 22.9225V8.1338H4.36384C2.085 8.1338 0.185963 6.28521 0.185963 4.0669C0.185963 1.84859 2.085 0 4.36384 0H25V23.662V23.9084C24.6202 26.25 23.6074 29.5775 20.9487 31.919C18.5433 34.0141 15.6314 35 12.593 35Z" fill="#343435"/>
</symbol>

<symbol id="name_company" viewBox="0 0 56 29" fill="none">
<g clip-path="url(#clip0_2_5)">
<path d="M53.2586 4.96214C55.2167 4.96214 56.522 6.89547 55.7388 8.69992L49.6689 23.1355C48.7551 25.2621 47.7108 26.8088 46.4055 27.6466C45.1001 28.4844 43.5337 28.9355 41.7062 28.9355C40.7924 28.9355 39.8134 28.8066 38.8997 28.4844C38.4428 28.3555 37.6596 27.9688 36.9416 27.5821C35.7668 27.0021 35.3752 25.5844 35.8973 24.4244C36.4847 23.1999 37.9859 22.7488 39.226 23.3932C39.5523 23.5866 39.8787 23.7155 40.0092 23.7799C40.5314 23.9733 40.9882 24.0377 41.5104 24.0377C42.0978 24.0377 42.5547 23.9088 42.9463 23.651C43.3379 23.3933 43.6642 23.071 43.9253 22.491L38.0512 8.82881C37.268 6.95992 38.6386 4.83325 40.7272 4.83325C41.902 4.83325 43.0115 5.54214 43.4032 6.6377L46.9929 15.531L50.6479 6.57325C51.1701 5.60659 52.1491 4.96214 53.2586 4.96214Z" fill="white"/>
<path d="M35.4407 15.531H24.0841C24.3452 16.4332 24.8673 17.1421 25.5853 17.5932C26.3685 18.1088 27.2822 18.3021 28.3918 18.3021C29.2403 18.3021 29.9582 18.1732 30.6109 17.9155C30.7414 17.851 30.872 17.7866 31.0025 17.7221C31.9815 17.271 33.0911 17.3999 33.8743 18.1732C34.9839 19.3332 34.7228 21.2666 33.2216 21.911C31.851 22.5555 30.154 22.8777 28.196 22.8777C26.1074 22.8777 24.2799 22.491 22.7787 21.7177C21.2123 20.9444 19.9722 19.8488 19.1237 18.4955C18.2752 17.1421 17.8184 15.5955 17.8184 13.791C17.8184 12.051 18.21 10.5044 19.0585 9.15102C19.9069 7.79769 21.0818 6.70213 22.5177 5.9288C23.9536 5.15547 25.6505 4.7688 27.5433 4.7688C29.3055 4.7688 30.9372 5.15547 32.3079 5.86435C33.7438 6.57324 34.8533 7.60435 35.7018 8.95769C36.5503 10.311 36.9419 11.9221 36.9419 13.791C37.0724 14.8866 36.2892 15.531 35.4407 15.531ZM25.1937 10.1177C24.541 10.6332 24.1494 11.4066 23.9536 12.3088H31.1983C31.0025 11.4066 30.6109 10.6332 29.9582 10.1177C29.3055 9.60213 28.5223 9.27991 27.5433 9.27991C26.5643 9.27991 25.8463 9.60213 25.1937 10.1177Z" fill="white"/>
<path d="M2.28449 22.1689C1.95815 22.04 1.69708 21.9111 1.37074 21.7178C-0.130427 20.88 -0.456768 18.9467 0.587522 17.6578C1.43601 16.6267 3.00244 16.4333 4.112 17.1422C4.82995 17.5933 5.54789 17.8511 6.33111 17.8511C7.24486 17.8511 7.96281 17.5933 8.48496 17.0133C9.0071 16.4333 9.20291 15.66 9.20291 14.5644V4.89778H2.54556C1.17493 4.89778 0.065377 3.80222 0.065377 2.44889C0.065377 1.09556 1.17493 0 2.54556 0H15.6644V14.2422C15.6644 17.1422 14.9465 19.3333 13.4453 20.8156C11.9442 22.2978 9.79032 23.0067 6.85326 23.0067C5.15629 23.0067 3.65512 22.7489 2.28449 22.1689Z" fill="white"/>
</g>
<defs>
<clipPath id="clip0_2_5">
<rect width="56" height="29" fill="white"/>
</clipPath>
</defs>
</symbol>

<symbol id="flag" width="36" height="32" viewBox="0 0 36 32" fill="none">
  <path d="M3.6 6.27606L32.4 3.29932C34.3512 3.29932 36 4.76492 36 6.49932V18.89C36 20.6244 34.3512 22.09 32.4 22.09L15.2652 25.0668L9.444 30.759C9.3276 30.8721 9.1656 30.9334 9 30.9334C8.9274 30.9334 8.8542 30.9217 8.7834 30.8977C8.5524 30.8182 8.4 30.6204 8.4 30.4001V25.0668H3.6C1.6488 25.0668 0 23.6012 0 21.8668V9.47606C0 7.74166 1.6488 6.27606 3.6 6.27606Z" fill="white"/>
</symbol>

<symbol id="arrow_down" width="80" height="80" viewBox="0 0 80 80" fill="none">
  <path d="M36.6604 6.72542L36.6604 65.2801L25.6902 54.31C22.5392 51.159 17.8129 55.8856 20.9639 59.0366L30.9702 69.0274L37.65 75.6968C38.9503 76.9894 41.0503 76.9894 42.3506 75.6968L59.0302 59.0366C59.6815 58.4028 60.047 57.5303 60.0394 56.6212C60.0391 53.6206 56.3842 52.148 54.3035 54.3101L43.3333 65.3061L43.3333 6.55289C43.104 1.93159 36.4303 2.27664 36.6604 6.72542Z" fill="white"/>
</symbol>

<symbol id="instagram" viewBox="0 0 40 40" fill="none">
  <g clip-path="url(#clip0_2_140)">
    <path d="M39.9609 11.7601C39.8672 9.63476 39.5235 8.17359 39.0312 6.90748C38.5233 5.56353 37.7419 4.36029 36.7181 3.36003C35.7178 2.34421 34.5067 1.55487 33.1783 1.05489C31.9048 0.562549 30.4513 0.218854 28.326 0.125146C26.1847 0.0235031 25.505 0 20.0742 0C14.6435 0 13.9637 0.0235031 11.8304 0.11721C9.70507 0.210918 8.24391 0.554918 6.9781 1.04696C5.63384 1.55487 4.4306 2.33627 3.43034 3.36003C2.41452 4.36029 1.62549 5.57146 1.12521 6.89985C0.632861 8.17359 0.289166 9.62682 0.195459 11.7522C0.0938156 13.8934 0.0703125 14.5732 0.0703125 20.0039C0.0703125 25.4347 0.0938156 26.1144 0.187523 28.2477C0.28123 30.3731 0.62523 31.8342 1.11758 33.1003C1.62549 34.4443 2.41452 35.6475 3.43034 36.6478C4.4306 37.6636 5.64177 38.4529 6.97016 38.9529C8.24391 39.4453 9.69713 39.789 11.8228 39.8827C13.9558 39.9767 14.6358 39.9999 20.0666 39.9999C25.4973 39.9999 26.1771 39.9767 28.3104 39.8827C30.4357 39.789 31.8969 39.4453 33.1627 38.9529C35.8509 37.9136 37.9763 35.7882 39.0156 33.1003C39.5076 31.8266 39.8516 30.3731 39.9454 28.2477C40.0391 26.1144 40.0626 25.4347 40.0626 20.0039C40.0626 14.5732 40.0546 13.8934 39.9609 11.7601ZM36.3588 28.0914C36.2728 30.0449 35.9446 31.0998 35.6711 31.8031C34.999 33.5457 33.616 34.9287 31.8734 35.6008C31.1701 35.8743 30.1076 36.2024 28.1617 36.2882C26.052 36.3822 25.4192 36.4054 20.0822 36.4054C14.7451 36.4054 14.1044 36.3822 12.0023 36.2882C10.0488 36.2024 8.99387 35.8743 8.29061 35.6008C7.42343 35.2803 6.63409 34.7724 5.99341 34.1082C5.32921 33.4596 4.8213 32.6782 4.5008 31.811C4.22731 31.1078 3.89919 30.0449 3.81341 28.0994C3.7194 25.9896 3.6962 25.3565 3.6962 20.0195C3.6962 14.6824 3.7194 14.0417 3.81341 11.9399C3.89919 9.98639 4.22731 8.93149 4.5008 8.22823C4.8213 7.36075 5.32921 6.57172 6.00134 5.93072C6.64966 5.26653 7.43106 4.75862 8.29854 4.43843C9.00181 4.16494 10.0646 3.83681 12.0102 3.75073C14.12 3.65703 14.7531 3.63352 20.0898 3.63352C25.4348 3.63352 26.0675 3.65703 28.1697 3.75073C30.1232 3.83681 31.1781 4.16494 31.8813 4.43843C32.7485 4.75862 33.5378 5.26653 34.1785 5.93072C34.8427 6.57935 35.3506 7.36075 35.6711 8.22823C35.9446 8.93149 36.2728 9.99402 36.3588 11.9399C36.4525 14.0497 36.476 14.6824 36.476 20.0195C36.476 25.3565 36.4525 25.9816 36.3588 28.0914Z" fill="var(--color, #fff)"/>
    <path d="M20.0743 9.72852C14.4015 9.72852 9.79883 14.3309 9.79883 20.004C9.79883 25.6771 14.4015 30.2794 20.0743 30.2794C25.7474 30.2794 30.3497 25.6771 30.3497 20.004C30.3497 14.3309 25.7474 9.72852 20.0743 9.72852ZM20.0743 26.6694C16.394 26.6694 13.4088 23.6845 13.4088 20.004C13.4088 16.3234 16.394 13.3385 20.0743 13.3385C23.7548 13.3385 26.7397 16.3234 26.7397 20.004C26.7397 23.6845 23.7548 26.6694 20.0743 26.6694Z" fill="var(--color, #fff)"/>
    <path d="M33.1549 9.32219C33.1549 10.6469 32.0808 11.721 30.7558 11.721C29.4311 11.721 28.3569 10.6469 28.3569 9.32219C28.3569 7.99716 29.4311 6.92334 30.7558 6.92334C32.0808 6.92334 33.1549 7.99716 33.1549 9.32219Z" fill="var(--color, #fff)"/>
  </g>
  <defs>
    <clipPath id="clip0_2_140">
      <rect width="40" height="40" fill="white"/>
    </clipPath>
  </defs>
</symbol>

<symbol id="behince" viewBox="0 0 40 40" fill="none">
  <g clip-path="url(#clip0_2_144)">
    <path d="M20.605 24.9117C20.605 21.8317 19.14 19.555 16.1133 18.7017C18.3217 17.65 19.4733 16.0567 19.4733 13.5783C19.4733 8.69167 15.82 7.5 11.605 7.5H0V32.035H11.93C16.4033 32.035 20.605 29.8967 20.605 24.9117ZM5.41 11.6883H10.4867C12.4383 11.6883 14.195 12.235 14.195 14.4917C14.195 16.575 12.8283 17.4133 10.895 17.4133H5.41V11.6883ZM5.40833 27.8683V21.1117H11.305C13.6867 21.1117 15.1933 22.1017 15.1933 24.615C15.1933 27.0933 13.395 27.8683 11.1933 27.8683H5.40833Z" fill="var(--color, #fff)"/>
    <path d="M31.3265 32.5C35.5832 32.5 38.3399 30.5884 39.6665 26.525H35.3465C34.8815 28.0417 32.9649 28.8434 31.4782 28.8434C28.6099 28.8434 27.1032 27.1684 27.1032 24.3217H39.9582C40.3649 18.625 37.1915 13.77 31.3249 13.77C25.8932 13.77 22.2065 17.84 22.2065 23.1717C22.2065 28.705 25.6999 32.5 31.3265 32.5ZM31.1732 17.4567C33.6315 17.4567 34.8682 18.8967 35.0749 21.2517H27.1099C27.2715 18.9167 28.8265 17.4567 31.1732 17.4567Z" fill="var(--color, #fff)"/>
    <path d="M26.1118 8.78833H36.0918V11.205H26.1118V8.78833Z" fill="var(--color, #fff)"/>
  </g>
  <defs>
    <clipPath id="clip0_2_144">
      <rect width="40" height="40" fill="white"/>
    </clipPath>
  </defs>
</symbol>

<symbol id="linkedin" viewBox="0 0 40 40" fill="none">
  <path d="M35.9998 36.0001V24.2801C35.9998 18.5201 34.7598 14.1201 28.0398 14.1201C24.7998 14.1201 22.6398 15.8801 21.7598 17.5601H21.6798V14.6401H15.3198V36.0001H21.9598V25.4001C21.9598 22.6001 22.4798 19.9201 25.9198 19.9201C29.3198 19.9201 29.3598 23.0801 29.3598 25.5601V35.9601H35.9998V36.0001Z" fill="var(--color, #fff)"/>
  <path d="M4.52002 14.6399H11.16V35.9999H4.52002V14.6399Z" fill="var(--color, #fff)"/>
  <path d="M7.84 4C5.72 4 4 5.72 4 7.84C4 9.96 5.72 11.72 7.84 11.72C9.96 11.72 11.68 9.96 11.68 7.84C11.68 5.72 9.96 4 7.84 4Z" fill="var(--color, #fff)"/>
</symbol>

</svg>
