<svg xmlns="http://www.w3.org/2000/svg">

<symbol id="icon_logo" viewBox="0 0 25 35" fill="none" >
<path d="M12.593 35C8.79492 35 4.87025 33.5211 1.45198 30.6866C-0.320446 29.2077 -0.447048 26.6197 0.945576 24.8944C2.4648 23.169 5.12345 23.0458 6.89588 24.4014C10.0609 27.1127 13.6058 27.2359 15.2516 25.8803C16.1378 25.1408 16.5177 23.7852 16.6443 22.9225V8.1338H4.36384C2.085 8.1338 0.185963 6.28521 0.185963 4.0669C0.185963 1.84859 2.085 0 4.36384 0H25V23.662V23.9084C24.6202 26.25 23.6074 29.5775 20.9487 31.919C18.5433 34.0141 15.6314 35 12.593 35Z" fill="#343435"/>
</symbol>

<symbol id="name_company" viewBox="0 0 56 29" fill="none">
<g clip-path="url(#clip0_2_5)">
<path d="M53.2586 4.96214C55.2167 4.96214 56.522 6.89547 55.7388 8.69992L49.6689 23.1355C48.7551 25.2621 47.7108 26.8088 46.4055 27.6466C45.1001 28.4844 43.5337 28.9355 41.7062 28.9355C40.7924 28.9355 39.8134 28.8066 38.8997 28.4844C38.4428 28.3555 37.6596 27.9688 36.9416 27.5821C35.7668 27.0021 35.3752 25.5844 35.8973 24.4244C36.4847 23.1999 37.9859 22.7488 39.226 23.3932C39.5523 23.5866 39.8787 23.7155 40.0092 23.7799C40.5314 23.9733 40.9882 24.0377 41.5104 24.0377C42.0978 24.0377 42.5547 23.9088 42.9463 23.651C43.3379 23.3933 43.6642 23.071 43.9253 22.491L38.0512 8.82881C37.268 6.95992 38.6386 4.83325 40.7272 4.83325C41.902 4.83325 43.0115 5.54214 43.4032 6.6377L46.9929 15.531L50.6479 6.57325C51.1701 5.60659 52.1491 4.96214 53.2586 4.96214Z" fill="white"/>
<path d="M35.4407 15.531H24.0841C24.3452 16.4332 24.8673 17.1421 25.5853 17.5932C26.3685 18.1088 27.2822 18.3021 28.3918 18.3021C29.2403 18.3021 29.9582 18.1732 30.6109 17.9155C30.7414 17.851 30.872 17.7866 31.0025 17.7221C31.9815 17.271 33.0911 17.3999 33.8743 18.1732C34.9839 19.3332 34.7228 21.2666 33.2216 21.911C31.851 22.5555 30.154 22.8777 28.196 22.8777C26.1074 22.8777 24.2799 22.491 22.7787 21.7177C21.2123 20.9444 19.9722 19.8488 19.1237 18.4955C18.2752 17.1421 17.8184 15.5955 17.8184 13.791C17.8184 12.051 18.21 10.5044 19.0585 9.15102C19.9069 7.79769 21.0818 6.70213 22.5177 5.9288C23.9536 5.15547 25.6505 4.7688 27.5433 4.7688C29.3055 4.7688 30.9372 5.15547 32.3079 5.86435C33.7438 6.57324 34.8533 7.60435 35.7018 8.95769C36.5503 10.311 36.9419 11.9221 36.9419 13.791C37.0724 14.8866 36.2892 15.531 35.4407 15.531ZM25.1937 10.1177C24.541 10.6332 24.1494 11.4066 23.9536 12.3088H31.1983C31.0025 11.4066 30.6109 10.6332 29.9582 10.1177C29.3055 9.60213 28.5223 9.27991 27.5433 9.27991C26.5643 9.27991 25.8463 9.60213 25.1937 10.1177Z" fill="white"/>
<path d="M2.28449 22.1689C1.95815 22.04 1.69708 21.9111 1.37074 21.7178C-0.130427 20.88 -0.456768 18.9467 0.587522 17.6578C1.43601 16.6267 3.00244 16.4333 4.112 17.1422C4.82995 17.5933 5.54789 17.8511 6.33111 17.8511C7.24486 17.8511 7.96281 17.5933 8.48496 17.0133C9.0071 16.4333 9.20291 15.66 9.20291 14.5644V4.89778H2.54556C1.17493 4.89778 0.065377 3.80222 0.065377 2.44889C0.065377 1.09556 1.17493 0 2.54556 0H15.6644V14.2422C15.6644 17.1422 14.9465 19.3333 13.4453 20.8156C11.9442 22.2978 9.79032 23.0067 6.85326 23.0067C5.15629 23.0067 3.65512 22.7489 2.28449 22.1689Z" fill="white"/>
</g>
<defs>
<clipPath id="clip0_2_5">
<rect width="56" height="29" fill="white"/>
</clipPath>
</defs>
</symbol>

<symbol id="flag" width="36" height="32" viewBox="0 0 36 32" fill="none">
  <path d="M3.6 6.27606L32.4 3.29932C34.3512 3.29932 36 4.76492 36 6.49932V18.89C36 20.6244 34.3512 22.09 32.4 22.09L15.2652 25.0668L9.444 30.759C9.3276 30.8721 9.1656 30.9334 9 30.9334C8.9274 30.9334 8.8542 30.9217 8.7834 30.8977C8.5524 30.8182 8.4 30.6204 8.4 30.4001V25.0668H3.6C1.6488 25.0668 0 23.6012 0 21.8668V9.47606C0 7.74166 1.6488 6.27606 3.6 6.27606Z" fill="white"/>
</symbol>

<symbol id="arrow_down" width="80" height="80" viewBox="0 0 80 80" fill="none">
  <path d="M36.6604 6.72542L36.6604 65.2801L25.6902 54.31C22.5392 51.159 17.8129 55.8856 20.9639 59.0366L30.9702 69.0274L37.65 75.6968C38.9503 76.9894 41.0503 76.9894 42.3506 75.6968L59.0302 59.0366C59.6815 58.4028 60.047 57.5303 60.0394 56.6212C60.0391 53.6206 56.3842 52.148 54.3035 54.3101L43.3333 65.3061L43.3333 6.55289C43.104 1.93159 36.4303 2.27664 36.6604 6.72542Z" fill="white"/>
</symbol>

</svg>
