<svg width="6" height="8" viewBox="0 0 6 8" fill="none" xmlns="http://www.w3.org/2000/svg">
<g clip-path="url(#clip0_2_162)">
<path d="M0.741161 0.45178C0.625714 0.449519 0.512345 0.479315 0.416814 0.537071C0.321284 0.594827 0.248338 0.677688 0.20812 0.77406C0.167902 0.870433 0.162409 0.975552 0.192405 1.07483C0.222401 1.17411 0.286396 1.26257 0.375492 1.32797L3.77501 3.92087L0.375492 6.51287C0.31386 6.5532 0.262244 6.6044 0.223878 6.66331C0.185511 6.72222 0.161221 6.78757 0.152527 6.85523C0.143833 6.92289 0.150923 6.9914 0.173353 7.0565C0.195783 7.12161 0.23307 7.18191 0.282878 7.23359C0.332687 7.28527 0.393945 7.32719 0.462815 7.35682C0.531685 7.38645 0.606685 7.40309 0.683116 7.40571C0.759547 7.40834 0.835763 7.39692 0.906993 7.37211C0.978222 7.3473 1.04293 7.30966 1.09706 7.26155L4.98921 4.29667C5.05033 4.25023 5.09941 4.19259 5.13306 4.12763C5.16672 4.06266 5.18415 3.99196 5.18415 3.92042C5.18415 3.84888 5.16672 3.77817 5.13306 3.71321C5.09941 3.64825 5.05033 3.59055 4.98921 3.54411L1.09706 0.576379C0.998742 0.498625 0.872631 0.454535 0.741161 0.45178Z" fill="black"/>
</g>
<defs>
<clipPath id="clip0_2_162">
<rect width="5.33333" height="7.12258" fill="white" transform="translate(0 0.367676)"/>
</clipPath>
</defs>
</svg>
