<svg width="342" height="343" viewBox="0 0 342 343" fill="none" xmlns="http://www.w3.org/2000/svg">
<path d="M0 183.541V175.062C0 173.067 0.498752 171.072 0.997505 169.077C1.49626 167.082 2.99252 166.085 4.48878 165.087C5.98504 164.09 7.98005 163.591 9.97506 163.591C11.9701 163.591 13.9651 164.09 15.4613 165.087C16.9576 166.085 18.4539 167.082 19.4514 169.077C20.4489 170.574 20.9476 172.569 20.9476 175.062V183.541H0ZM18.9526 175.062C18.9526 173.067 18.4539 171.571 17.9551 170.075C16.9576 168.579 15.9601 167.581 14.9626 167.082C13.4663 166.584 11.9701 166.085 10.4738 166.085C8.97756 166.085 7.4813 166.584 5.98504 167.082C4.48878 168.08 3.49127 169.077 2.99252 170.574C2.49377 172.07 1.99501 173.566 1.99501 175.561V181.546L18.9526 181.047V175.062Z" fill="white"/>
<path d="M22.4442 137.157L24.4392 137.656L21.9455 152.12L1.49658 148.628L3.99035 134.663L5.98536 135.162L3.99035 147.132L11.4716 148.628L13.4667 138.155L15.4617 138.653L13.4667 149.127L20.948 150.623L22.4442 137.157Z" fill="white"/>
<path d="M27.4314 124.688C26.4339 125.686 25.4364 126.683 24.4389 127.182L22.9426 125.686C23.9401 125.187 24.9376 124.688 25.9351 123.691C26.9327 122.693 27.4314 121.696 27.9302 120.2C28.4289 118.205 28.9277 117.207 28.4289 115.711C27.9302 114.713 27.4314 113.716 26.4339 113.716C25.4364 113.217 24.9376 113.217 24.4389 113.716C23.9401 114.214 23.4414 114.713 22.9426 115.212C22.4439 115.711 21.9451 116.708 20.9476 117.706C19.9501 119.202 19.4514 120.2 18.4538 120.698C17.9551 121.696 16.9576 122.195 15.9601 122.195C14.9626 122.693 13.9651 122.693 12.9676 122.195C11.4713 121.696 10.9726 121.197 9.97504 120.698C9.47629 119.701 8.97754 118.703 8.97754 117.706C8.97754 116.209 8.97754 115.212 9.47629 113.217C9.97504 111.721 10.9726 110.723 11.4713 109.726C11.9701 108.728 12.9676 107.731 13.9651 107.232L14.9626 108.728C13.9651 109.227 13.4663 110.224 12.9676 110.723C12.4688 111.721 11.9701 112.219 11.4713 113.217C10.9726 114.713 10.4738 116.209 10.9725 117.706C11.4713 118.703 11.9701 119.701 12.9676 119.701C13.9651 120.2 14.4638 120.2 14.9626 119.701C15.4613 119.202 15.9601 118.703 16.9576 118.205C17.4563 117.706 17.9551 116.708 18.9526 115.711C19.9501 114.214 20.4489 113.217 21.4464 112.718C21.9451 111.721 22.9426 111.222 23.9401 111.222C24.9376 110.723 25.9351 110.723 26.9326 111.222C27.9302 111.721 28.9277 112.219 29.4264 113.217C29.9252 114.214 30.4239 115.212 30.4239 116.209C30.4239 117.706 30.4239 118.703 29.4264 120.698C28.9277 122.195 28.4289 123.192 27.4314 124.688Z" fill="white"/>
<path d="M18.9526 92.7681L19.9501 90.7731L38.404 100.748L37.4065 102.743L18.9526 92.7681Z" fill="white"/>
<path d="M45.3865 70.8229L46.8828 69.3267L53.3666 74.3142C53.3666 75.8105 53.3666 76.808 52.8678 78.3042C52.3691 79.8005 51.8703 80.798 50.8728 82.2943C49.8753 83.7905 48.379 85.2868 46.384 85.7855C44.8878 86.783 42.8928 86.783 40.8977 86.783C38.9027 86.783 37.4065 85.7855 35.4115 84.788C33.9152 83.7905 32.4189 82.2943 31.9202 80.2992C31.4214 78.3042 30.9227 76.808 31.4214 74.813C31.9202 72.8179 32.4189 71.3217 33.9152 69.3267C34.9127 67.8304 35.9102 66.8329 36.9077 66.3342C37.9052 65.3366 39.4015 65.3366 40.8977 64.8379L41.3965 66.8329C38.9027 67.3317 37.4065 68.3292 35.9102 70.3242C34.9127 71.8204 34.414 73.3167 33.9152 74.813C33.9152 76.3092 33.9152 77.8055 34.414 79.3017C34.9127 80.798 35.9102 81.7955 37.4065 82.793C38.9027 83.7905 39.9002 84.2893 41.8952 84.2893C43.3915 84.2893 44.8878 84.2893 46.384 83.7905C47.8803 83.2918 48.8778 82.2943 49.8753 80.798C51.3716 79.3017 51.8703 77.3067 51.8703 75.3117L45.3865 70.8229Z" fill="white"/>
<path d="M62.8431 38.9028L76.8082 54.3642L75.3119 55.3617L53.8655 51.8704L65.3368 64.3392L63.8406 65.8355L49.8755 50.3742L51.3717 49.3766L72.8181 52.8679L61.3468 40.3991L62.8431 38.9028Z" fill="white"/>
<path d="M111.222 23.9401C112.22 24.4388 113.217 25.4363 113.716 26.4338C114.713 27.9301 114.215 29.4263 113.716 30.9226C112.718 32.4189 111.222 33.4164 109.227 34.9126L100.25 38.9027L91.272 19.95L99.7508 15.96C101.746 14.9625 103.741 14.4638 105.237 14.9625C106.733 15.4613 107.731 15.96 108.728 17.955C109.227 18.9525 109.227 19.95 109.227 20.9475C109.227 21.9451 108.728 22.9426 107.731 23.4413C109.227 22.9426 110.225 23.4413 111.222 23.9401ZM94.2645 20.4488L97.257 27.4313L103.242 24.4388C104.738 23.9401 105.736 22.9426 106.235 21.9451C106.733 20.9475 106.733 19.95 106.235 18.9525C105.736 17.955 104.738 16.9575 103.741 16.9575C102.743 16.9575 101.247 16.9575 99.7508 17.955L94.2645 20.4488ZM111.721 30.4239C112.22 29.4263 112.22 28.4288 111.721 26.9326C110.723 24.4388 108.23 23.9401 104.738 25.9351L98.2545 28.9276L101.746 35.9101L108.23 32.9176C109.726 32.4189 111.222 31.4214 111.721 30.4239Z" fill="white"/>
<path d="M128.678 24.9377C126.683 23.9401 125.686 21.9451 124.688 18.9526L121.696 7.4813L123.691 6.98254L126.683 18.4539C127.182 20.9476 128.18 22.4439 129.676 23.4414C131.172 24.4389 132.668 24.4389 134.663 23.9402C136.658 23.4414 138.155 22.4439 138.653 20.9476C139.651 19.4514 139.651 17.4564 139.152 15.4613L136.16 3.99002L138.155 3.49127L141.147 14.9626C141.646 17.9551 141.646 20.4489 140.648 21.9451C139.651 23.9401 137.656 24.9377 135.162 25.9352C132.668 26.4339 130.673 26.4339 128.678 24.9377ZM126.185 3.49127C125.686 3.49127 125.686 2.99252 125.686 2.49377C125.686 1.99501 125.686 1.99501 125.686 1.49626C125.686 0.997505 126.185 0.997505 126.683 0.997505C127.182 0.997505 127.182 0.997505 127.681 0.997505C128.18 0.997505 128.18 1.49626 128.18 1.99501C128.18 2.49376 128.18 2.49377 128.18 2.99252C128.18 3.49127 127.681 3.49127 127.182 3.49127C127.182 3.99002 126.683 3.49127 126.185 3.49127ZM131.671 2.49377C131.172 2.49377 131.172 1.99501 131.172 1.49626C131.172 0.997505 131.172 0.997506 131.172 0.498753C131.172 -4.8308e-07 131.671 0 132.17 0C132.668 0 132.668 0 133.167 0C133.666 0 133.666 0.498752 133.666 0.997505C133.666 1.49626 133.666 1.49626 133.666 1.99501C133.666 2.49376 133.167 2.49377 132.668 2.49377C132.17 2.49377 131.671 2.49377 131.671 2.49377Z" fill="white"/>
<path d="M171.072 21.4464L166.085 14.9626C165.586 14.9626 165.087 14.9626 164.588 14.9626H159.102L159.601 21.4464H157.606L155.611 0.997559H163.591C166.085 0.997559 168.578 1.49631 170.075 2.49382C171.571 3.49133 172.568 5.48634 172.568 7.48135C172.568 8.97761 172.07 10.4739 171.571 11.4714C171.072 12.4689 169.576 13.9651 168.08 14.4639L173.566 21.4464H171.072ZM168.578 11.4714C169.576 10.4739 170.075 8.97761 170.075 7.48135C170.075 5.98509 169.576 4.48883 168.08 3.49132C167.082 2.49382 165.586 1.99507 163.092 2.49382H157.606L158.105 12.9676H163.591C166.085 12.9676 167.581 12.4689 168.578 11.4714Z" fill="white"/>
<path d="M188.529 21.4463C187.032 20.4488 186.035 18.9526 185.037 16.9576C184.539 15.4613 184.539 13.4663 184.539 11.4713C185.037 9.47627 185.536 7.98001 187.032 6.48375C188.529 4.98749 189.526 3.98998 191.521 3.49123C193.516 2.99248 195.511 2.49373 197.506 2.99248C199.501 3.49123 201.496 3.98999 202.992 4.98749C204.489 5.985 205.486 7.48126 206.484 9.47627C206.982 11.4713 207.481 12.9675 206.982 14.9626C206.484 16.9576 205.985 18.4538 204.489 19.9501C203.491 21.4463 201.995 22.4438 200 22.9426C198.005 23.4414 196.509 23.9401 194.015 23.4414C192.02 23.4414 190.025 22.4439 188.529 21.4463ZM199.002 21.4463C200.499 20.9476 201.496 19.9501 202.494 18.9526C203.491 17.4563 203.99 15.9601 204.489 14.4638C204.987 12.9675 204.489 11.4713 203.99 9.97502C203.491 8.47876 202.494 7.48126 201.496 6.48375C200.499 5.48624 199.002 4.98749 197.007 4.48874C195.511 3.98998 194.015 4.48874 192.519 4.98749C191.022 5.48625 190.025 6.48375 189.027 7.48126C188.03 8.47876 187.531 9.97503 187.032 11.4713C186.534 12.9675 187.032 14.4638 187.531 15.9601C188.03 17.4563 189.027 18.4538 190.025 19.4513C191.022 20.4488 192.519 20.9476 194.514 21.4463C196.01 21.9451 197.506 21.9451 199.002 21.4463Z" fill="white"/>
<path d="M268.329 31.4214L270.324 32.9176L258.853 48.379L268.329 55.3615L267.332 56.8578L256.359 48.379L268.329 31.4214Z" fill="white"/>
<path d="M285.785 72.818L284.289 74.3142L274.314 63.3416L289.277 48.8778L299.252 59.3516L298.254 60.8479L289.775 51.8703L284.289 56.8579L291.77 64.8379L290.274 66.3342L282.793 58.3541L277.306 63.8404L285.785 72.818Z" fill="white"/>
<path d="M309.726 76.3092L305.735 70.3242L307.232 69.3267L316.708 83.2917L315.212 84.2893L311.222 78.3042L295.262 88.778L294.264 86.783L309.726 76.3092Z" fill="white"/>
<path d="M322.194 93.7656L323.192 95.2619L316.209 98.7532L315.71 97.2569L322.194 93.7656Z" fill="white"/>
<path d="M310.723 117.207C310.723 115.711 311.222 114.214 311.721 113.217L313.716 113.716C313.217 114.713 313.217 115.711 313.217 117.207C313.217 118.703 313.217 119.701 313.716 121.197C314.214 123.192 315.212 124.189 316.209 124.688C317.207 125.187 318.204 125.686 319.202 125.187C320.199 124.688 320.698 124.688 320.698 123.691C321.197 123.192 321.197 122.194 321.197 121.696C321.197 120.698 321.197 119.701 321.197 118.703C321.197 117.207 321.197 115.711 321.197 114.713C321.197 113.716 321.696 112.718 322.194 111.721C322.693 110.723 323.691 110.224 324.688 109.726C325.686 109.227 326.683 109.227 327.681 109.726C328.678 109.726 329.676 110.723 330.673 111.222C331.671 112.219 332.17 113.217 332.668 115.212C333.167 116.209 333.167 117.706 333.167 118.703C333.167 119.701 333.167 121.197 332.668 122.194H330.673C331.172 121.197 331.172 120.199 331.172 119.202C331.172 118.204 331.172 117.207 330.673 116.209C330.175 114.713 329.177 113.217 328.18 112.718C327.182 112.219 326.184 111.721 325.187 112.219C324.189 112.718 323.691 112.718 323.691 113.716C323.192 114.214 323.192 115.212 323.192 115.711C323.192 116.708 323.192 117.706 323.192 118.703C323.192 120.199 323.192 121.696 323.192 122.693C323.192 123.691 322.693 124.688 322.194 125.686C321.696 126.683 320.698 127.182 319.701 127.681C318.703 128.179 317.706 128.179 316.708 127.681C315.711 127.681 314.713 126.683 313.716 125.686C312.718 124.688 312.219 123.691 311.721 121.696C310.723 120.199 310.723 118.703 310.723 117.207Z" fill="white"/>
<path d="M320.698 158.105C321.696 156.608 322.693 155.112 324.189 154.115C325.686 153.117 327.681 152.618 329.676 152.12C331.671 152.12 333.666 152.12 335.162 153.117C336.658 154.115 338.154 155.112 339.152 156.608C340.15 158.105 340.648 160.1 340.648 162.095C340.648 163.591 340.648 165.087 340.149 166.583C339.651 168.08 339.152 169.077 338.155 170.075L336.658 168.578C338.154 167.082 339.152 164.588 338.653 162.095C338.653 160.598 338.154 159.102 337.157 157.606C336.159 156.11 335.162 155.112 333.666 154.613C332.169 154.115 330.673 153.616 329.177 153.616C327.681 153.616 326.184 154.115 324.688 155.112C323.192 156.11 322.693 157.107 321.696 158.603C321.197 160.1 320.698 161.596 320.698 163.092C320.698 165.586 321.696 167.581 323.691 169.077L322.194 170.573C321.197 169.576 320.199 168.578 319.701 167.581C319.202 166.085 318.703 165.087 318.703 163.092C319.701 161.596 319.701 159.601 320.698 158.105Z" fill="white"/>
<path d="M318.205 197.008L325.686 193.018C325.686 192.519 325.686 192.02 325.686 191.521L326.185 186.035L319.701 185.038L320.2 183.042L341.147 185.536L340.15 193.516C339.651 196.01 339.152 198.005 337.656 199.501C336.16 200.998 334.165 201.496 332.17 200.998C330.673 200.998 329.177 200 328.18 199.003C327.182 198.005 326.683 197.008 326.185 195.013L318.205 199.003V197.008ZM328.18 196.509C329.177 197.506 330.175 198.504 331.671 198.504C333.167 198.504 334.663 198.504 335.661 197.506C336.658 196.509 337.157 195.013 337.656 193.018L338.155 187.531L327.681 186.035L327.182 191.521C327.182 193.516 327.182 195.013 328.18 196.509Z" fill="white"/>
<path d="M312.22 224.938L310.225 224.439L314.713 210.474L334.664 216.958L330.674 230.424L328.678 229.925L332.17 218.454L325.187 215.96L321.696 226.434L319.701 225.935L323.192 215.461L315.711 212.968L312.22 224.938Z" fill="white"/>
<path d="M304.738 249.377L310.224 238.903L306.234 233.915L307.232 231.92L321.197 250.374L320.199 252.369L297.257 250.873L298.254 248.878L304.738 249.377ZM306.234 249.875L318.703 250.873L311.222 240.898L306.234 249.875Z" fill="white"/>
<path d="M304.738 273.317L309.227 267.332L310.723 268.329L300.249 281.796L298.753 280.798L303.242 274.813L288.279 263.342L289.776 261.347L304.738 273.317Z" fill="white"/>
<path d="M266.833 288.279L265.337 286.783L276.309 276.808L290.275 292.269L279.801 302.244L278.803 300.249L287.781 291.771L282.793 286.284L274.813 293.766L273.317 292.269L281.297 284.788L275.811 279.302L266.833 288.279Z" fill="white"/>
<path d="M242.893 302.743C244.389 302.743 245.885 302.743 246.883 303.242V305.237C245.885 304.738 244.888 304.738 243.392 304.738C241.895 304.738 240.898 305.237 239.402 305.736C237.905 306.733 236.409 307.731 235.91 308.728C235.412 309.726 235.412 310.723 235.91 311.721C236.409 312.718 236.908 312.718 237.407 313.217C237.905 313.217 238.903 313.716 239.402 313.217C240.399 313.217 241.397 312.718 242.394 312.718C243.89 312.219 245.387 312.219 246.384 312.219C247.382 312.219 248.379 312.219 249.377 312.718C250.374 313.217 250.873 313.716 251.87 315.212C252.369 316.209 252.369 317.207 252.369 318.205C252.369 319.202 251.87 320.2 250.873 321.197C249.875 322.195 248.878 323.192 247.382 323.691C246.384 324.19 245.387 324.688 243.89 324.688C242.893 324.688 241.397 325.187 240.399 324.688V322.693C241.397 322.693 242.394 322.693 243.392 322.693C244.389 322.693 245.387 322.195 246.384 321.696C247.88 320.698 248.878 319.701 249.377 318.703C249.875 317.706 249.875 316.708 249.377 315.711C248.878 314.713 248.379 314.713 247.88 314.215C247.382 314.215 246.384 313.716 245.885 314.215C244.888 314.215 243.89 314.713 242.893 314.713C241.397 315.212 240.399 315.212 239.402 315.711C238.404 315.711 237.407 315.711 236.409 315.212C235.412 314.713 234.913 314.214 233.915 312.718C233.417 311.721 233.417 310.723 233.417 309.726C233.417 308.728 233.915 307.731 234.913 306.733C235.91 305.736 236.908 304.738 238.404 304.239C239.9 303.741 241.397 303.242 242.893 302.743Z" fill="white"/>
<path d="M217.955 314.215C219.95 314.713 221.446 315.711 222.943 316.708C224.439 317.706 225.436 319.701 225.935 321.696C226.434 323.691 226.434 325.686 225.935 327.182C225.436 329.177 224.439 330.673 223.441 332.17C221.945 333.666 220.449 334.663 218.454 335.162C216.459 335.661 214.464 335.661 212.469 335.162C210.474 334.663 208.978 333.666 207.481 332.668C205.985 331.172 204.988 329.676 204.489 327.681C203.99 325.686 203.99 323.691 204.489 322.195C204.988 320.2 205.985 318.703 206.983 317.207C208.479 315.711 209.975 314.713 211.97 314.215C213.965 313.716 215.96 313.716 217.955 314.215ZM208.978 318.703C207.98 319.701 206.983 321.197 206.983 322.693C206.983 324.19 206.484 325.686 206.983 327.182C207.481 328.678 207.98 330.175 209.476 331.172C210.474 332.17 211.97 333.167 213.466 333.167C214.963 333.167 216.459 333.666 217.955 333.167C219.451 332.668 220.948 332.17 221.945 330.673C222.943 329.676 223.94 328.18 223.94 326.683C224.439 325.187 224.439 323.691 223.94 322.195C223.441 320.698 222.943 319.202 221.446 318.205C220.449 317.207 218.953 316.21 217.456 316.21C215.96 315.711 214.464 315.711 212.968 316.21C210.973 317.207 209.975 317.706 208.978 318.703Z" fill="white"/>
<path d="M170.075 342.145L168.579 321.197H170.574L171.571 338.155L179.052 323.691H180.05L189.028 337.157L188.03 320.698H190.025L191.521 341.646H189.526L179.551 326.683L171.571 342.643L170.075 342.145Z" fill="white"/>
<path d="M140.649 319.701L141.147 317.706L155.611 319.701L152.619 340.648L138.155 338.653L138.654 336.658L150.624 338.155L151.621 330.673L141.147 329.177L141.646 327.182L152.12 328.678L153.117 321.197L140.649 319.701Z" fill="white"/>
<path d="M119.701 332.17L126.683 334.663L126.185 336.658L110.225 331.671L110.723 329.676L117.706 332.17L123.691 314.214L125.686 314.713L119.701 332.17Z" fill="white"/>
<path d="M81.7954 317.207L91.7705 298.753L93.7655 299.751L89.2767 308.229L100.748 314.713L105.237 306.234L107.232 307.232L97.2568 325.686L95.2618 324.688L99.7505 316.708L88.2792 310.225L83.7904 318.205L81.7954 317.207Z" fill="white"/>
<path d="M67.83 307.232L65.835 305.736L78.3038 289.277L80.2988 290.773L67.83 307.232Z" fill="white"/>
<path d="M40.8979 282.793L55.8605 268.329L57.3568 269.825L54.3643 291.272L66.8331 279.302L68.3294 280.798L53.3668 295.262L51.8705 293.766L54.863 272.319L42.3942 284.289L40.8979 282.793Z" fill="white"/>
<path d="M31.4212 250.873L29.925 248.878L36.9075 244.389C38.4038 244.888 39.4013 245.387 40.3988 246.384C41.3963 247.382 42.3938 248.379 43.3913 249.377C44.3888 251.372 44.8876 252.868 45.3863 254.863C45.3863 256.858 44.8876 258.354 44.3888 260.349C43.3913 261.845 42.3938 263.342 40.3988 264.339C38.9025 265.337 36.9075 265.835 34.9125 265.835C32.9175 265.835 31.4212 265.337 29.4262 264.339C27.93 263.342 26.4337 261.845 25.4362 260.349C24.4387 258.853 23.9399 257.855 23.9399 256.359C23.4412 254.863 23.9399 253.367 23.9399 252.369L25.9349 252.868C25.4362 255.362 25.9349 257.357 27.4312 259.352C28.4287 260.848 29.4262 261.845 30.9225 262.843C32.4187 263.84 33.915 263.84 35.4113 263.84C36.9075 263.84 38.4038 263.342 39.9 262.344C41.3963 261.347 42.3938 260.349 42.8925 258.853C43.3913 257.357 43.8901 255.86 43.8901 254.364C43.8901 252.868 43.3913 251.372 42.3938 249.875C41.3963 247.88 39.9 246.883 37.905 245.885L31.4212 250.873Z" fill="white"/>
</svg>
