<svg width="25" height="35" viewBox="0 0 25 35" fill="none" xmlns="http://www.w3.org/2000/svg">
<path d="M12.593 35C8.79492 35 4.87025 33.5211 1.45198 30.6866C-0.320446 29.2077 -0.447048 26.6197 0.945576 24.8944C2.4648 23.169 5.12345 23.0458 6.89588 24.4014C10.0609 27.1127 13.6058 27.2359 15.2516 25.8803C16.1378 25.1408 16.5177 23.7852 16.6443 22.9225V8.1338H4.36384C2.085 8.1338 0.185963 6.28521 0.185963 4.0669C0.185963 1.84859 2.085 0 4.36384 0H25V23.662V23.9084C24.6202 26.25 23.6074 29.5775 20.9487 31.919C18.5433 34.0141 15.6314 35 12.593 35Z" fill="#343435"/>
</svg>
